<svg viewBox="0 0 150 150" xmlns="http://www.w3.org/2000/svg" xmlns:xlink="http://www.w3.org/1999/xlink">
  <circle fill="#198754" cx="75" cy="75" r="75" />
  <path fill="#fff" d="M76.8,135.13H73.52l0.18-10.07h2.88ZM76.37,115H73.88l0.18-10.07h2.09Z" />
  <polygon fill="#fff" points="77.13 150.62 73.23 150.62 73.33 145.21 77.01 145.21 77.13 150.62" />
  <path
    fill="#fff"
    d="M102.28,99.7A7.32,7.32,0,0,0,105,94V65.8h4a2.4,2.4,0,0,0,2.4-2.4V62h0.76a1.74,1.74,0,0,0,1.74-1.74v-8.1a1.74,1.74,0,0,0-1.74-1.74h-0.76V47.28a2.4,2.4,0,0,0-2.4-2.4h-4V44a7.35,7.35,0,0,0-7.35-7.35H52.38A7.35,7.35,0,0,0,45,44v0.87H40.14a2.4,2.4,0,0,0-2.4,2.4v3.09H37a1.74,1.74,0,0,0-1.74,1.74v8.1A1.74,1.74,0,0,0,37,62h0.76V63.4a2.4,2.4,0,0,0,2.4,2.4H45V94a7.34,7.34,0,0,0,3.13,6l-23,35.39L26,135.88c1.44,0.86,35.5,21.09,48.9,21.09H75c13.43-.13,47.77-21.31,49.22-22.21l0.76-.47ZM105,46.19h4a1.09,1.09,0,0,1,1.09,1.09v3.09h-0.76a1.74,1.74,0,0,0-1.74,1.74v8.1A1.74,1.74,0,0,0,109.32,62h0.76V63.4A1.09,1.09,0,0,1,109,64.49h-4V46.19ZM45,64.49H40.14a1.09,1.09,0,0,1-1.09-1.09V62h0.76a1.74,1.74,0,0,0,1.74-1.74v-8.1a1.74,1.74,0,0,0-1.74-1.74H39.05V47.28a1.09,1.09,0,0,1,1.09-1.09H45v18.3ZM75,155.23l-0.11.87v-0.87c-11.84,0-42-17.32-47.23-20.38l21.4-33v3.64a1.74,1.74,0,0,0,1.74,1.74h3.48A1.74,1.74,0,0,0,56,105.53v-4.16H94.56v4.16a1.74,1.74,0,0,0,1.74,1.74h3.49a1.74,1.74,0,0,0,1.74-1.74v-3.79l21,32C117.32,136.92,86.86,155.11,75,155.23Z"
  />
  <rect fill="#198754" height="23.9" rx="3.55" ry="3.55" width="49.54" x="50.23" y="42.36" />
  <circle fill="#198754" cx="53.29" cy="93.05" r="4.23" />
  <circle fill="#198754" cx="96.51" cy="93.05" r="4.23" />
  <path
    fill="#fff"
    d="M93.77,48.22a0.55,0.55,0,0,1-.18,0L74.82,41.55a0.55,0.55,0,0,1,.37-1L94,47.15A0.55,0.55,0,0,1,93.77,48.22Z"
  />
</svg>
